<?xml version="1.0" encoding="utf-8"?>
<!-- Generator: Adobe Illustrator 23.0.4, SVG Export Plug-In . SVG Version: 6.00 Build 0)  -->
<svg version="1.1" xmlns="http://www.w3.org/2000/svg" xmlns:xlink="http://www.w3.org/1999/xlink" x="0px" y="0px"
	 viewBox="0 0 720 200" style="enable-background:new 0 0 720 200;" xml:space="preserve">
<style type="text/css">
	.st0{display:none;}
	.st1{display:inline;fill:#FFFFFF;stroke:#6077CA;stroke-width:14.86;stroke-miterlimit:10;}
	.st2{display:inline;fill:none;stroke:#3649A3;stroke-width:8;stroke-linecap:round;stroke-miterlimit:10;}
	.st3{display:inline;fill:#FFFFFF;stroke:#3A3D6D;stroke-width:4;}
	.st4{display:inline;fill:#FFFFFF;stroke:#EF6843;stroke-width:10.43;stroke-miterlimit:10;}
	.st5{display:inline;fill:none;stroke:#D25C59;stroke-width:8;stroke-linecap:round;stroke-miterlimit:10;}
	.st6{display:inline;fill:none;stroke:#FFAA5B;stroke-width:8;stroke-linecap:round;stroke-linejoin:round;}
	.st7{display:inline;fill:#5C5299;}
	.st8{display:inline;fill:none;stroke:#3B3E6E;stroke-width:7;stroke-linecap:round;stroke-miterlimit:10;}
	.st9{display:inline;fill:#FFFFFF;stroke:#A94A64;stroke-width:7;stroke-miterlimit:10;}
	.st10{display:inline;fill:#EF6843;}
	.st11{display:inline;fill:none;stroke:#FAD262;stroke-width:8;stroke-linecap:round;stroke-linejoin:round;}
	.st12{fill:none;stroke:#515151;stroke-width:3;stroke-miterlimit:10;}
	.st13{fill:#FFCE00;}
	.st14{fill:#999999;}
	.st15{fill:#CCCCCC;}
	.st16{fill:none;stroke:#515151;stroke-width:2;stroke-miterlimit:10;}
	.st17{fill:none;stroke:#515151;stroke-width:2;stroke-linecap:round;stroke-miterlimit:10;}
	.st18{fill:none;stroke:#EDEDED;stroke-width:2;stroke-linecap:round;stroke-miterlimit:10;}
	.st19{fill:#BF0400;}
	.st20{fill:none;stroke:#7FFFD4;stroke-width:2;stroke-miterlimit:10;}
	.st21{fill:#7FFFD4;}
	.st22{fill:none;stroke:#BF0400;stroke-width:2;stroke-miterlimit:10;}
</style>
<g id="Layer_1" class="st0">
	<title>home-bg-mobile-top</title>
	<path class="st1" d="M666.9,89.2c12.8,0.1,23.2-10.2,23.2-23c0.1-12.8-10.2-23.2-23-23.2C654.4,42.9,644,53.2,644,66
		c0,0,0,0.1,0,0.1C643.9,78.8,654.2,89.2,666.9,89.2z"/>
	<path class="st2" d="M671,58h34.4"/>
	<path class="st2" d="M616,58h31.9"/>
	<path class="st2" d="M583,58h9.8"/>
	<path class="st3" d="M567.1,56.8c-0.1-4.2-3.6-7.5-7.8-7.4s-7.5,3.6-7.4,7.8c0.1,4.1,3.5,7.4,7.6,7.4
		C563.8,64.5,567.2,61,567.1,56.8z"/>
	<path class="st4" d="M403,135c-0.1,8.9,7.1,16.2,16,16.2c8.9,0.1,16.2-7.1,16.2-16c0-0.1,0-0.1,0-0.2v0.2c0.1-8.9-7.1-16.2-16-16.2
		C410.3,119,403,126.1,403,135c0,0.1,0,0.1,0,0.2"/>
	<path class="st5" d="M430,88.1L604.5,88"/>
	<path class="st6" d="M346,58h146.3"/>
	<path class="st7" d="M288.3,46.5H138.2v34h150.1V46.5z"/>
	<path class="st8" d="M277.5,80.6L277,57l-149.9-0.5l-0.5,30.8l147.3,0.5"/>
	<path class="st8" d="M127.1,56.5l-90,97.2"/>
	<path class="st8" d="M161.4,153.6l66.2-65.5"/>
	<path class="st9" d="M346,149.6c8,0,14.5-6.4,14.5-14.4c0-8-6.4-14.5-14.4-14.5s-14.5,6.4-14.5,14.4c0,0,0,0.1,0,0.1
		C331.6,143.1,338,149.6,346,149.6C346,149.6,346,149.6,346,149.6z"/>
	<path class="st8" d="M37.1,153.6h90"/>
	<path class="st10" d="M689,124.1H529v34h160V124.1z"/>
	<path class="st11" d="M477,148.1h158"/>
</g>
<g id="Layer_2">
	<path class="st12" d="M344.3,168.4c-0.1,0.2-0.1,0.4-0.1,0.7c0,2.9,5.8,5.2,13,5.2s13-2.3,13-5.2c0-0.2,0-0.4-0.1-0.7H344.3z"/>
	<g>
		<g>
			<path class="st13" d="M402.7,88.5c0-24.5-20.4-44.3-45.1-43.3c-22.1,0.9-40.2,18.6-41.5,40.6c-0.9,14.6,5.4,27.7,15.7,36.2
				c7.7,6.4,12.4,15.7,12.4,25.8v0.6h30.4v-0.2c0-10.2,4.8-19.8,12.6-26.3C396.7,113.9,402.7,101.9,402.7,88.5z"/>
			<path class="st14" d="M346.5,172.7c-0.1,0.2-0.1,0.4-0.1,0.7c0,2.9,5.8,5.2,13,5.2s13-2.3,13-5.2c0-0.2,0-0.4-0.1-0.7H346.5z"/>
			<path class="st15" d="M369.6,172.7h-20.4c-2.8,0-5-2.2-5-5v-19.3h30.4v19.3C374.6,170.4,372.3,172.7,369.6,172.7z"/>
			<g>
				<path class="st13" d="M359.4,32.5L359.4,32.5c-1.4,0-2.6-1.2-2.6-2.6v-7.8c0-1.4,1.2-2.6,2.6-2.6l0,0c1.4,0,2.6,1.2,2.6,2.6v7.8
					C362,31.3,360.8,32.5,359.4,32.5z"/>
				<path class="st13" d="M324.7,43.5L324.7,43.5c-1.2,0.8-2.8,0.6-3.6-0.6l-4.6-6.3c-0.8-1.2-0.6-2.8,0.6-3.6v0
					c1.2-0.8,2.8-0.6,3.6,0.6l4.6,6.3C326.1,41.1,325.8,42.7,324.7,43.5z"/>
				<path class="st13" d="M303.4,73L303.4,73c-0.4,1.4-1.9,2.1-3.3,1.7l-7.4-2.4c-1.4-0.4-2.1-1.9-1.7-3.3v0
					c0.4-1.4,1.9-2.1,3.3-1.7l7.4,2.4C303.1,70.2,303.8,71.7,303.4,73z"/>
				<path class="st13" d="M303,109.3L303,109.3c0.4,1.4-0.3,2.8-1.7,3.3l-7.4,2.4c-1.4,0.4-2.8-0.3-3.3-1.7v0
					c-0.4-1.4,0.3-2.8,1.7-3.3l7.4-2.4C301.1,107.2,302.6,108,303,109.3z"/>
				<path class="st13" d="M412.7,108.2L412.7,108.2c0.4-1.4,1.9-2.1,3.3-1.7l7.4,2.4c1.4,0.4,2.1,1.9,1.7,3.3v0
					c-0.4,1.4-1.9,2.1-3.3,1.7l-7.4-2.4C413,111,412.2,109.5,412.7,108.2z"/>
				<path class="st13" d="M412.3,71.5L412.3,71.5c-0.4-1.4,0.3-2.8,1.7-3.3l7.4-2.4c1.4-0.4,2.8,0.3,3.3,1.7l0,0
					c0.4,1.4-0.3,2.8-1.7,3.3l-7.4,2.4C414.2,73.7,412.7,72.9,412.3,71.5z"/>
				<path class="st13" d="M390.6,42.1L390.6,42.1c-1.2-0.8-1.4-2.5-0.6-3.6l4.6-6.3c0.8-1.2,2.5-1.4,3.6-0.6v0
					c1.2,0.8,1.4,2.5,0.6,3.6l-4.6,6.3C393.4,42.7,391.8,42.9,390.6,42.1z"/>
			</g>
		</g>
		<path class="st12" d="M407.1,84.2c0-24.5-20.4-44.3-45.1-43.3c-22.1,0.9-40.2,18.6-41.5,40.6c-0.9,14.6,5.4,27.7,15.7,36.2
			c7.7,6.4,12.4,15.7,12.4,25.8v0.6h30.4v-0.2c0-10.2,4.8-19.8,12.6-26.3C401,109.5,407.1,97.6,407.1,84.2z"/>
		<path class="st12" d="M373.9,168.3h-20.4c-2.8,0-5-2.2-5-5v-19.3h30.4v19.3C378.9,166.1,376.7,168.3,373.9,168.3z"/>
		<path class="st16" d="M358.9,106.8h-5.2c-2.9,0-5.2-2.3-5.2-5.2v0c0-2.9,2.3-5.2,5.2-5.2l0,0c2.9,0,5.2,2.3,5.2,5.2V106.8z"/>
		<path class="st16" d="M373.7,106.8h-5.2v-5.2c0-2.9,2.3-5.2,5.2-5.2l0,0c2.9,0,5.2,2.3,5.2,5.2v0
			C378.9,104.4,376.6,106.8,373.7,106.8z"/>
		<line class="st16" x1="358.9" y1="106.8" x2="368.5" y2="106.8"/>
		<line class="st16" x1="358.9" y1="106.8" x2="358.9" y2="144.1"/>
		<line class="st16" x1="368.5" y1="106.8" x2="368.5" y2="144.1"/>
		<line class="st17" x1="353.7" y1="150.1" x2="373.7" y2="150.1"/>
		<line class="st17" x1="353.7" y1="155.3" x2="373.7" y2="155.3"/>
		<line class="st17" x1="353.7" y1="160.5" x2="373.7" y2="160.5"/>
		<path class="st18" d="M335.5,80.7c0-15.6,12.6-28.2,28.2-28.2"/>
		<g>
			<path class="st16" d="M363.7,28.1L363.7,28.1c-1.4,0-2.6-1.2-2.6-2.6v-7.8c0-1.4,1.2-2.6,2.6-2.6l0,0c1.4,0,2.6,1.2,2.6,2.6v7.8
				C366.3,27,365.2,28.1,363.7,28.1z"/>
			<path class="st16" d="M329,39.2L329,39.2c-1.2,0.8-2.8,0.6-3.6-0.6l-4.6-6.3c-0.8-1.2-0.6-2.8,0.6-3.6v0c1.2-0.8,2.8-0.6,3.6,0.6
				l4.6,6.3C330.4,36.7,330.2,38.4,329,39.2z"/>
			<path class="st16" d="M307.7,68.7L307.7,68.7c-0.4,1.4-1.9,2.1-3.3,1.7l-7.4-2.4c-1.4-0.4-2.1-1.9-1.7-3.3l0,0
				c0.4-1.4,1.9-2.1,3.3-1.7l7.4,2.4C307.4,65.9,308.1,67.3,307.7,68.7z"/>
			<path class="st16" d="M307.3,105L307.3,105c0.4,1.4-0.3,2.8-1.7,3.3l-7.4,2.4c-1.4,0.4-2.8-0.3-3.3-1.7v0
				c-0.4-1.4,0.3-2.8,1.7-3.3l7.4-2.4C305.4,102.9,306.9,103.6,307.3,105z"/>
			<path class="st16" d="M417,103.8L417,103.8c0.4-1.4,1.9-2.1,3.3-1.7l7.4,2.4c1.4,0.4,2.1,1.9,1.7,3.3v0c-0.4,1.4-1.9,2.1-3.3,1.7
				l-7.4-2.4C417.3,106.7,416.6,105.2,417,103.8z"/>
			<path class="st16" d="M416.6,67.2L416.6,67.2c-0.4-1.4,0.3-2.8,1.7-3.3l7.4-2.4c1.4-0.4,2.8,0.3,3.3,1.7v0
				c0.4,1.4-0.3,2.8-1.7,3.3l-7.4,2.4C418.5,69.3,417.1,68.6,416.6,67.2z"/>
			<path class="st16" d="M395,37.7L395,37.7c-1.2-0.8-1.4-2.5-0.6-3.6l4.6-6.3c0.8-1.2,2.5-1.4,3.6-0.6v0c1.2,0.8,1.4,2.5,0.6,3.6
				l-4.6,6.3C397.8,38.3,396.1,38.6,395,37.7z"/>
		</g>
	</g>
	<g>
		<g>
			<circle class="st19" cx="157.9" cy="139.9" r="30.6"/>
			<circle class="st20" cx="157.9" cy="139.9" r="22.1"/>
			<circle class="st21" cx="157.9" cy="139.9" r="4.8"/>
		</g>
		<circle class="st22" cx="157.9" cy="139.9" r="38.9"/>
	</g>
	<g>
		<g>
			<circle class="st19" cx="567.6" cy="117.8" r="30.6"/>
			<circle class="st20" cx="567.6" cy="117.8" r="22.1"/>
			<circle class="st21" cx="567.6" cy="117.8" r="4.8"/>
		</g>
		<circle class="st22" cx="567.6" cy="117.8" r="38.9"/>
	</g>
</g>
</svg>
