<?xml version="1.0" encoding="utf-8"?>
<!-- Generator: Adobe Illustrator 23.0.4, SVG Export Plug-In . SVG Version: 6.00 Build 0)  -->
<svg version="1.1" xmlns="http://www.w3.org/2000/svg" xmlns:xlink="http://www.w3.org/1999/xlink" x="0px" y="0px"
	 viewBox="0 0 720 200" style="enable-background:new 0 0 720 200;" xml:space="preserve">
<style type="text/css">
	.st0{display:none;}
	.st1{display:inline;}
	.st2{clip-path:url(#SVGID_2_);}
	.st3{fill:none;stroke:#D25C59;stroke-width:7;stroke-linecap:round;stroke-miterlimit:10;}
	.st4{fill-opacity:0;}
	.st5{fill:none;stroke:#6077CA;stroke-width:7;stroke-linecap:round;stroke-miterlimit:10;}
	.st6{fill:none;stroke:#3649A3;stroke-width:7;stroke-linecap:round;stroke-linejoin:round;}
	.st7{fill:#FAD262;}
	.st8{fill:#FFFFFF;stroke:#EF6843;stroke-width:14.86;stroke-linecap:round;stroke-linejoin:round;}
	.st9{fill:none;stroke:#5C5299;stroke-width:7;stroke-linecap:round;stroke-miterlimit:10;}
	.st10{fill:none;stroke:#FFAA5B;stroke-width:7;stroke-linecap:round;stroke-miterlimit:10;}
	.st11{fill:#FFFFFF;}
	.st12{fill:none;stroke:#D25C59;stroke-width:7;stroke-linecap:round;stroke-linejoin:round;}
	.st13{fill:none;stroke:#FFAA5B;stroke-width:7;stroke-linecap:round;stroke-linejoin:round;}
	.st14{fill:#FFFFFF;stroke:#A94A64;stroke-width:4;}
	.st15{display:inline;fill:none;stroke:#3A3D6D;stroke-width:8;stroke-linecap:round;stroke-miterlimit:10;}
	.st16{display:inline;fill:#FFFFFF;stroke:#3A3D6D;stroke-width:4;}
	.st17{display:inline;fill:none;stroke:#5C5299;stroke-width:7;stroke-linecap:round;stroke-miterlimit:10;}
	.st18{display:inline;fill:#FFFFFF;stroke:#6077CA;stroke-width:10.43;stroke-miterlimit:10;}
	.st19{fill:#3398CC;}
	.st20{fill:none;stroke:#7FFFD4;stroke-width:2;stroke-linecap:round;stroke-miterlimit:10;}
	.st21{fill:none;stroke:#515151;stroke-width:4;stroke-linecap:round;stroke-linejoin:round;stroke-miterlimit:10;}
	.st22{fill:#515151;}
	.st23{fill:none;stroke:#515151;stroke-width:4;stroke-linecap:round;stroke-miterlimit:10;}
	.st24{fill:#BF0400;}
	.st25{fill:none;stroke:#515151;stroke-width:2;stroke-linecap:round;stroke-miterlimit:10;}
	.st26{fill:none;stroke:#EDEDED;stroke-linecap:round;stroke-linejoin:round;stroke-miterlimit:10;}
	.st27{fill:none;stroke:#7FFFD4;stroke-width:2;stroke-miterlimit:10;}
	.st28{fill:#7FFFD4;}
	.st29{fill:none;stroke:#BF0400;stroke-width:2;stroke-miterlimit:10;}
</style>
<g id="Layer_1" class="st0">
	<title>home-bg-mobile-bottom</title>
	<g class="st1">
		<defs>
			<polyline id="SVGID_1_" points="0,186.6 0,-189.8 719.9,-189.8 719.9,186.6 			"/>
		</defs>
		<clipPath id="SVGID_2_">
			<use xlink:href="#SVGID_1_"  style="overflow:visible;"/>
		</clipPath>
		<g class="st2">
			<path class="st3" d="M227.6,153.7h24.1"/>
			<rect x="35.6" y="40.1" class="st4" width="145" height="25.5"/>
			<path class="st5" d="M35.6,40.1h144.9"/>
			<path class="st5" d="M73.2,65.6H179"/>
			<path class="st5" d="M73.6,65.5l107-25"/>
			<path class="st6" d="M675.3,62.8V37.7"/>
			<path class="st6" d="M675.3,62.8l30.1-25.1"/>
			<path class="st7" d="M486.8,27.2H376.3V111h110.5V27.2z"/>
			<path class="st8" d="M671,174.3c9.7,0.1,17.7-7.8,17.7-17.5c0.1-9.7-7.8-17.7-17.5-17.7c-9.7-0.1-17.7,7.8-17.7,17.5
				c0,0,0,0.1,0,0.1C653.5,166.4,661.3,174.3,671,174.3z"/>
			<path class="st9" d="M231.1,114V39.9h7.1"/>
			<path class="st10" d="M467.1,117.6l-74.6,0.4l-0.4-79.2L500.4,38l1.1,51.5l29.1-51.2l1,107.6"/>
			<path class="st10" d="M559.6,35.9l37.1,0.4l1,110.4"/>
			<path class="st10" d="M627.9,36.6h29.4l1.1,112.2"/>
			<path class="st11" d="M265.3,153.5l130.2,0.4L265.3,153.5z"/>
			<path class="st12" d="M265.3,153.7l130.2,0.2"/>
			<path class="st12" d="M407.3,153.8l7-0.1"/>
			<path class="st11" d="M682.2,155.7l23.1,0.1L682.2,155.7z"/>
			<path class="st13" d="M682.2,155.7l23.1,0.1"/>
			<path class="st14" d="M54.3,69.2c4.7-6.1-2.3-13-8.4-8.4C41.3,67,48.2,73.9,54.3,69.2z"/>
		</g>
	</g>
	<path class="st15" d="M49.1,127.4h61v-11.1h58.6"/>
	<path class="st16" d="M181.1,116.9c-0.1-3.2-2.7-5.7-5.9-5.7s-5.7,2.7-5.7,5.9c0.1,3.1,2.6,5.7,5.8,5.7
		C178.6,122.8,181.2,120.1,181.1,116.9z"/>
	<path class="st17" d="M247.6,113.9V76.9"/>
	<path class="st17" d="M247.6,113.9h36.9"/>
	<path class="st17" d="M288.5,61.2h24.4"/>
	<path class="st17" d="M328.1,61.2h5.5"/>
	<path class="st18" d="M333.6,116.2c9,0.1,16.3-7.2,16.3-16.1c0.1-9-7.2-16.3-16.1-16.3s-16.3,7.2-16.3,16.1c0,0,0,0.1,0,0.1
		C317.5,108.9,324.7,116.2,333.6,116.2z"/>
	<path class="st17" d="M247.6,113.9l40.9-52.6"/>
</g>
<g id="Layer_3">
	<g>
		<path class="st19" d="M388.7,317.9H299c-1.1,0-2-0.9-2-2c0,0-0.1-27.1,0.9-36.8c1.5-13.4,6.5-38.1,6.5-38.1c0.2-1.1,0.2-1.1-0.1,0
			l-8.1,30.6c-0.3,1.1-0.8,2.8-1.1,3.8L282.2,316c-0.3,1-1.5,1.9-2.6,1.9h-22c-1.1,0-1.7-0.8-1.3-1.9c0,0,36.4-101.6,57.6-110.8
			c9.9-4.3,30.4-1.6,37.3-21.6c2.6-7.5-3.3-10.9-3.3-10.9c-0.9-0.6-2.6-1.2-3.7-1.4c0,0-16.2-3.4-20.9-3.4c-9.4,0-5.4-20.8-5.4-20.8
			c0.2-1.1-0.3-2.5-1.2-3.2l-1.5-1.1c-0.9-0.7-1.5-2.1-1.5-3.2c0,0,0.8-11.4,2.4-14.9c0.7-1.6,1.9-3.2,1.8-4.9
			c-0.6-6.9-3-6.2-21.2-17.7c-0.9-0.6-1-1.9-0.2-2.7c5.9-5.7,20.8-18,25-26c4-7.5,5.5-25.2,9.4-32.7c0,0,12.6-41,71.2-23.2
			c6.1,1.9,34.6,16.9,37.8,37.9s-7.1,83.6-21,107.1c-5.2,8.8-14.8,9.5-26.1,13.9c-11.3,4.4-1.1,39.6-1.1,39.6
			c0.3,1.1,0.9,2.7,1.4,3.7c0,0,39.9,86.1,35.5,98h-29.6c-1.1,0-2.3-0.9-2.7-1.9c0,0-9.5-27.6-12.5-35l-10.9-34.8
			c-0.3-1-0.5-1-0.4,0.1l0.4,4c0.1,1.1,0.4,2.9,0.5,4C373.4,254.1,382.5,310.5,388.7,317.9z"/>
	</g>
	<g>
		<polyline class="st20" points="358.8,61.2 407.5,51.7 403.9,70 377.4,83.8 380.9,65.5 384.5,47.2 358.8,61.2 362.3,42.9 
			380.9,65.5 		"/>
		<path class="st20" d="M377.4,83.8l-18.6-22.6L377.4,83.8z"/>
		<polyline class="st20" points="380.9,65.5 407.5,51.7 388,29 384.5,47.2 403.9,70 362.3,42.9 388,29 		"/>
	</g>
	<g>
		<path class="st21" d="M391.5,315.1h-89.7c-1.1,0-2-0.9-2-2c0,0-0.1-27.1,0.9-36.8c1.5-13.4,6.5-38.1,6.5-38.1
			c0.2-1.1,0.2-1.1-0.1,0l-8.1,30.6c-0.3,1.1-0.8,2.8-1.1,3.8L285,313.2c-0.3,1-1.5,1.9-2.6,1.9h-22c-1.1,0-1.7-0.8-1.3-1.9
			c0,0,36.4-101.6,57.6-110.8c9.9-4.3,30.4-1.6,37.3-21.6c2.6-7.5-3.3-10.9-3.3-10.9c-0.9-0.6-2.6-1.2-3.7-1.4
			c0,0-16.2-3.4-20.9-3.4c-9.4,0-5.4-20.8-5.4-20.8c0.2-1.1-0.3-2.5-1.2-3.2l-1.5-1.1c-0.9-0.7-1.5-2.1-1.5-3.2
			c0,0,0.8-11.4,2.4-14.9c0.7-1.6,1.9-3.2,1.8-4.9c-0.6-6.9-3-6.2-21.2-17.7c-0.9-0.6-1-1.9-0.2-2.7c5.9-5.7,20.8-18,25-26
			c4-7.5,5.5-25.2,9.4-32.7c0,0,12.6-41,71.2-23.2c6.1,1.9,34.6,16.9,37.8,37.9c3.1,21-7.1,83.6-21,107.1
			c-5.2,8.8-14.8,9.5-26.1,13.9c-11.3,4.4-1.1,39.6-1.1,39.6c0.3,1.1,0.9,2.7,1.4,3.7c0,0,39.9,86.1,35.5,98h-29.6
			c-1.1,0-2.3-0.9-2.7-1.9c0,0-9.5-27.6-12.5-35l-10.9-34.8c-0.3-1-0.5-1-0.4,0.1l0.4,4c0.1,1.1,0.4,2.9,0.5,4
			C376.1,251.3,385.3,307.7,391.5,315.1z"/>
	</g>
	<g>
		<path class="st21" d="M412.8,104.9c2.3-6.6,5.1-10.7,7.4-10.3c3.5,0.6,4.5,11.7,2.2,24.7c-2.3,13-7,23.1-10.5,22.5
			c-1.5-0.3-2.5-2.4-3-5.8"/>
	</g>
	
		<ellipse transform="matrix(0.1736 -0.9848 0.9848 0.1736 200.5598 419.5211)" class="st22" cx="350.3" cy="90.3" rx="11.3" ry="2"/>
	<path class="st23" d="M325.1,142.4c0,0,4.9,5.8,14.9,2.4"/>
	<g>
		<circle class="st24" cx="386.9" cy="30.1" r="5.6"/>
		<circle class="st24" cx="376.2" cy="84.9" r="5.6"/>
		<circle class="st24" cx="361.2" cy="44" r="5.6"/>
		<circle class="st24" cx="383.3" cy="48.3" r="5.6"/>
		<circle class="st24" cx="406.4" cy="52.8" r="5.6"/>
		<circle class="st24" cx="357.7" cy="62.3" r="5.6"/>
		<circle class="st24" cx="379.8" cy="66.6" r="5.6"/>
		<circle class="st24" cx="402.8" cy="71.1" r="5.6"/>
	</g>
	<g>
		<circle class="st25" cx="388" cy="29" r="5.6"/>
		<circle class="st25" cx="377.4" cy="83.8" r="5.6"/>
		<circle class="st25" cx="362.3" cy="42.9" r="5.6"/>
		<circle class="st25" cx="384.5" cy="47.2" r="5.6"/>
		<circle class="st25" cx="407.5" cy="51.7" r="5.6"/>
		<circle class="st25" cx="358.8" cy="61.2" r="5.6"/>
		<circle class="st25" cx="380.9" cy="65.5" r="5.6"/>
		<circle class="st25" cx="403.9" cy="70" r="5.6"/>
	</g>
	<path class="st26" d="M362.3,40.2c-1.5,0-2.8,1.2-2.8,2.8"/>
	<path class="st26" d="M381.7,47.2c0-1.5,1.2-2.8,2.8-2.8"/>
	<path class="st26" d="M404.1,52.2c0-1.5,1.2-2.8,2.8-2.8"/>
	<path class="st26" d="M385.2,29c0-1.5,1.2-2.8,2.8-2.8"/>
	<path class="st26" d="M356,61.2c0-1.5,1.2-2.8,2.8-2.8"/>
	<g>
		<g>
			<circle class="st24" cx="186.9" cy="82.9" r="30.6"/>
			<circle class="st27" cx="186.9" cy="82.9" r="22.1"/>
			<circle class="st28" cx="186.9" cy="82.9" r="4.8"/>
		</g>
		<circle class="st29" cx="186.9" cy="82.9" r="38.9"/>
	</g>
	<g>
		<g>
			<circle class="st24" cx="545.8" cy="143.3" r="30.6"/>
			<circle class="st27" cx="545.8" cy="143.3" r="22.1"/>
			<circle class="st28" cx="545.8" cy="143.3" r="4.8"/>
		</g>
		<circle class="st29" cx="545.8" cy="143.3" r="38.9"/>
	</g>
	<g>
		<g>
			<path class="st27" d="M543.9,146.2c-7.8-2-2.9-21.4-10.7-23.4c-7.8-2-12.7,17.4-20.6,15.4c-7.8-2-2.9-21.4-10.7-23.4
				c-7.8-2-12.7,17.4-20.6,15.4c-7.8-2-2.9-21.4-10.7-23.4c-7.8-2-12.7,17.4-20.6,15.4c-7.8-2-2.9-21.4-10.7-23.4
				c-7.8-2-12.7,17.4-20.6,15.4c-7.8-2-2.9-21.4-10.7-23.4c-7.8-2-12.7,17.4-20.6,15.4c-7.8-2-2.9-21.4-10.7-23.4"/>
		</g>
		<circle class="st28" cx="377.4" cy="83.8" r="1.5"/>
	</g>
	<path class="st26" d="M401.5,70.3c0-1.5,1.2-2.8,2.8-2.8"/>
	<path class="st26" d="M378.5,65.7c0-1.5,1.2-2.8,2.8-2.8"/>
	<path class="st26" d="M374,83.6c0-1.5,1.2-2.8,2.8-2.8"/>
</g>
</svg>
