<?xml version="1.0" encoding="utf-8"?>
<!-- Generator: Adobe Illustrator 23.0.4, SVG Export Plug-In . SVG Version: 6.00 Build 0)  -->
<svg version="1.1" id="Layer_1" xmlns="http://www.w3.org/2000/svg" xmlns:xlink="http://www.w3.org/1999/xlink" x="0px" y="0px"
	 viewBox="0 0 1400 900" style="enable-background:new 0 0 1400 900;" xml:space="preserve">
<style type="text/css">
	.st0{fill:none;stroke:#BF0400;stroke-width:20;stroke-miterlimit:10;}
	.st1{display:none;}
	.st2{display:inline;}
	.st3{fill:#EF6843;}
	.st4{fill:none;stroke:#3A3D6D;stroke-width:15;stroke-linecap:round;}
	.st5{fill:#FFFFFF;stroke:#EF6843;stroke-width:10.43;stroke-miterlimit:10;}
	.st6{fill:none;stroke:#D25C59;stroke-width:8;stroke-linecap:round;stroke-miterlimit:10;}
	.st7{fill:#FFFFFF;stroke:#D15B58;stroke-width:10;}
	.st8{fill:none;stroke:#EF6843;stroke-width:7;stroke-linecap:round;stroke-linejoin:round;}
	.st9{fill:none;stroke:#FFAA5B;stroke-width:8;stroke-linecap:round;stroke-linejoin:round;}
	.st10{fill:none;stroke:#6077CA;stroke-width:8;stroke-linecap:round;stroke-linejoin:round;}
	.st11{fill:none;stroke:#5C5299;stroke-width:8;stroke-linecap:round;stroke-linejoin:round;}
	.st12{fill:none;stroke:#3649A3;stroke-width:7;stroke-linecap:round;stroke-miterlimit:10;}
	.st13{fill:none;stroke:#3649A3;stroke-width:8;stroke-linecap:round;stroke-miterlimit:10;}
	.st14{fill:#6077CA;}
	.st15{fill:none;stroke:#A94A64;stroke-width:7;stroke-linecap:round;stroke-miterlimit:10;}
	.st16{fill:none;stroke:#5C5299;stroke-width:7;stroke-linecap:round;stroke-linejoin:round;}
	.st17{fill:none;stroke:#3B3E6E;stroke-width:7;stroke-miterlimit:10;}
	.st18{fill:#FAD262;}
	.st19{fill:none;stroke:#FFAA5B;stroke-width:7;stroke-linecap:round;stroke-miterlimit:10;}
	.st20{fill:none;stroke:#F5A859;stroke-width:10;}
	.st21{fill:#FFFFFF;stroke:#F5A859;stroke-width:5;}
	.st22{fill:#FFFFFF;stroke:#F5A859;stroke-width:10.43;stroke-miterlimit:10;}
	.st23{fill:#FFFFFF;stroke:#D15B58;stroke-width:4;}
	.st24{display:inline;fill:#CCCCCC;stroke:#161616;stroke-width:2;stroke-miterlimit:10;}
	.st25{display:inline;fill:#515151;}
	.st26{display:inline;fill:#EDEDED;stroke:#515151;stroke-width:14;stroke-miterlimit:10;}
	.st27{display:inline;fill:#CCCCCC;stroke:#CCCCCC;stroke-width:14;stroke-miterlimit:10;}
	.st28{display:inline;fill:#161616;stroke:#161616;stroke-width:2;stroke-miterlimit:10;}
	.st29{display:inline;fill:#CCCCCC;}
	.st30{display:inline;fill:#0A0A0A;}
	.st31{display:inline;fill:none;stroke:#F4F4F4;stroke-width:4;stroke-linecap:round;stroke-linejoin:round;stroke-miterlimit:10;}
	.st32{display:inline;fill:#BF0400;}
	.st33{display:inline;fill:#FFCE00;}
	.st34{display:inline;fill:#00E00B;}
	.st35{display:inline;fill:none;stroke:#EDEDED;stroke-width:2;stroke-linecap:round;stroke-linejoin:round;stroke-miterlimit:10;}
	.st36{display:inline;fill:none;stroke:#EDEDED;stroke-miterlimit:10;}
	.st37{fill:#FFCE00;}
	.st38{fill:#999999;}
	.st39{fill:#CCCCCC;}
	.st40{fill:none;stroke:#515151;stroke-width:3;stroke-miterlimit:10;}
	.st41{fill:none;stroke:#515151;stroke-width:2;stroke-miterlimit:10;}
	.st42{fill:none;stroke:#515151;stroke-width:2;stroke-linecap:round;stroke-miterlimit:10;}
	.st43{fill:none;stroke:#EDEDED;stroke-width:2;stroke-linecap:round;stroke-miterlimit:10;}
	.st44{display:inline;fill:none;stroke:#BF0400;stroke-width:18;stroke-miterlimit:10;}
	.st45{fill:#3398CC;}
	.st46{fill:none;stroke:#7FFFD4;stroke-width:2;stroke-linecap:round;stroke-miterlimit:10;}
	.st47{fill:none;stroke:#515151;stroke-width:4;stroke-linecap:round;stroke-linejoin:round;stroke-miterlimit:10;}
	.st48{fill:#515151;}
	.st49{fill:none;stroke:#515151;stroke-width:4;stroke-linecap:round;stroke-miterlimit:10;}
	.st50{fill:#BF0400;}
	.st51{fill:none;stroke:#EDEDED;stroke-linecap:round;stroke-linejoin:round;stroke-miterlimit:10;}
	.st52{fill:none;stroke:#7FFFD4;stroke-width:2;stroke-miterlimit:10;}
	.st53{fill:#7FFFD4;}
	.st54{fill:none;stroke:#BF0400;stroke-width:2;stroke-miterlimit:10;}
</style>
<g>
	<path class="st0" d="M100.1,904.1c0,0,0-7.3,0-16.1s1.3-16.1,3-16.1h136c1.7,0,3-11.2,3-25V708.7"/>
</g>
<g class="st1">
	<title>home-bg</title>
	<g class="st2">
		<path class="st3" d="M724.2,798h-160v34h160V798z"/>
		<path class="st4" d="M103,901v-93.8c6.4-21.4,14.3-25.3,31.1-27.4c0,0,648.1,0.2,682.6,0.2s46,1.5,46,22s23.5,19,23.5,19H1310"/>
		<path d="M110.4,807.4c-0.1-4.2-3.6-7.5-7.8-7.4c-4.2,0.1-7.5,3.6-7.4,7.8c0.1,4.1,3.5,7.4,7.6,7.4
			C107,815.1,110.4,811.6,110.4,807.4z"/>
		<path d="M206.6,779.8c-0.1-4.2-3.6-7.5-7.8-7.4s-7.5,3.6-7.4,7.8c0.1,4.1,3.5,7.4,7.6,7.4C203.3,787.5,206.7,784,206.6,779.8z"/>
		<path d="M326.2,779.5c-0.3-6.1-5.4-10.8-11.5-10.5s-10.8,5.4-10.5,11.5c0.3,5.9,5.1,10.5,11,10.5
			C321.4,790.9,326.3,785.7,326.2,779.5z"/>
		<path d="M382.7,779.8c-0.1-4.2-3.6-7.5-7.8-7.4c-4.2,0.1-7.5,3.6-7.4,7.8c0.1,4.1,3.5,7.4,7.6,7.4
			C379.3,787.5,382.7,784,382.7,779.8z"/>
		<path d="M623.4,779.8c-0.1-4.2-3.6-7.5-7.8-7.4s-7.5,3.6-7.4,7.8c0.1,4.1,3.5,7.4,7.6,7.4C620,787.5,623.4,784,623.4,779.8z"/>
		<path d="M741.1,779.8c-0.1-4.2-3.6-7.5-7.8-7.4s-7.5,3.6-7.4,7.8c0.1,4.1,3.5,7.4,7.6,7.4C737.7,787.5,741.1,784,741.1,779.8z"/>
		<path d="M865.4,786.8c-0.1-4.2-3.6-7.5-7.8-7.4s-7.5,3.6-7.4,7.8c0.1,4.1,3.5,7.4,7.6,7.4C862,794.5,865.4,791,865.4,786.8z"/>
		<path d="M1035.4,821.8c-0.1-4.2-3.6-7.5-7.8-7.4c-4.2,0.1-7.5,3.6-7.4,7.8c0.1,4.1,3.5,7.4,7.6,7.4
			C1032,829.5,1035.4,826,1035.4,821.8L1035.4,821.8z"/>
		<path d="M1150.4,821.8c-0.1-4.2-3.6-7.5-7.8-7.4c-4.2,0.1-7.5,3.6-7.4,7.8c0.1,4.1,3.5,7.4,7.6,7.4
			C1147,829.5,1150.4,826,1150.4,821.8L1150.4,821.8z"/>
		<path d="M632.1,167.2c12.8,0.1,23.2-10.2,23.2-23c0.1-12.8-10.2-23.2-23-23.2s-23.2,10.2-23.2,23v0.1
			C609.1,156.8,619.4,167.2,632.1,167.2z"/>
		<path class="st5" d="M422.3,773.4c9,0.1,16.3-7.2,16.3-16.1c0.1-9-7.2-16.3-16.1-16.3c-9-0.1-16.3,7.2-16.3,16.1v0.1
			C406.1,766.1,413.4,773.4,422.3,773.4z"/>
		<path class="st6" d="M433.2,710.1l174.6-0.1"/>
		<path d="M1249.3,483.9h31.6"/>
		<rect x="1028.1" y="452.8" width="190" height="33.4"/>
		<path d="M1028.1,452.8h190"/>
		<path d="M1077.4,486.2h138.7"/>
		<path d="M1077.9,486.1l140.3-32.8"/>
		<circle class="st7" cx="849.7" cy="107.5" r="32.5"/>
		<path class="st8" d="M1273.2,862h7.7"/>
		<path class="st9" d="M349.2,680h146.3"/>
		<path d="M512.2,822h158"/>
		<path class="st10" d="M1091.2,841h162"/>
		<path class="st11" d="M556.2,524.2V293"/>
		<path class="st11" d="M533.2,347.7V276"/>
		<path class="st12" d="M954.2,402H1320"/>
		<path class="st12" d="M1288.2,421.3h37.1"/>
		<path class="st12" d="M1211.1,421.3h24.4"/>
		<path class="st12" d="M1250.7,421.3h5.5"/>
		<path class="st13" d="M636.2,136h34.4"/>
		<path class="st13" d="M581.2,136H613"/>
		<path class="st13" d="M548.2,136h9.8"/>
		<path d="M532.4,134.8c-0.1-4.2-3.6-7.5-7.8-7.4s-7.5,3.6-7.4,7.8c0.1,4.1,3.5,7.4,7.6,7.4C529,142.5,532.4,139,532.4,134.8z"/>
		<path d="M821.4,361.8c-0.1-4.2-3.6-7.5-7.8-7.4s-7.5,3.6-7.4,7.8c0.1,4.1,3.5,7.4,7.6,7.4C818,369.5,821.4,366,821.4,361.8z"/>
		<path class="st13" d="M605.2,370.4h120.6l0.5-9.4H803"/>
		<path class="st14" d="M766.2,518.1V601l224-192.5V321L766.2,518.1z"/>
		<path class="st15" d="M778.2,467l94-80"/>
		<path class="st15" d="M680.2,655l222-189"/>
		<rect x="1296.2" y="584" width="44.4" height="37.5"/>
		<path class="st16" d="M1296.2,621.5v-35"/>
		<path class="st16" d="M1296.2,621.5l44.4-37.5"/>
		<rect x="849.2" y="159" width="303.7" height="227.7"/>
		<path class="st14" d="M1012.2,303.9l0.5,82.7h50.3v-66.3c0.4-3.9-0.7-7.7-3.1-10.8c-4.6-5.6-11.7-5.2-12.3-5.2L1012.2,303.9z"/>
		<path d="M1108.2,159h-150v34h150.1L1108.2,159L1108.2,159z"/>
		<path class="st17" d="M1138.3,284.3l-42.3,0.2c0-27.7-0.1-55.4-0.1-83.1"/>
		<path d="M1021.4,298.4c8,0,14.5-6.4,14.5-14.4s-6.4-14.5-14.4-14.5s-14.5,6.4-14.5,14.4v0.1C1007,291.9,1013.5,298.3,1021.4,298.4
			L1021.4,298.4z"/>
		<path d="M1138.5,299.9c8,0,14.5-6.4,14.5-14.4s-6.4-14.5-14.4-14.5s-14.5,6.4-14.5,14.4v0.1
			C1124.1,293.4,1130.6,299.9,1138.5,299.9L1138.5,299.9z"/>
		<path d="M863.5,268.9c8,0,14.5-6.4,14.5-14.4s-6.4-14.5-14.4-14.5s-14.5,6.4-14.5,14.4v0.1C849.1,262.4,855.6,268.9,863.5,268.9z"
			/>
		<rect x="863.2" y="169" width="268.4" height="214.3"/>
		<path d="M1097.5,193.1l-0.5-23.6L947.1,169l-0.5,30.8l147.3,0.5"/>
		<path d="M947.1,169l-83.9,90.6l0.5,119.3c0.1,0.8,0.3,1.7,0.8,2.4c0.5,0.6,1.1,1,1.7,1.3c2.2,1,172.9,0.8,263,0.7
			c0.7,0.1,1.4-0.1,1.9-0.6c0.2-0.2,0.3-0.5,0.4-0.7c0.1-0.3,0.1-0.5,0.1-0.8c0-26.9-0.1-53.8-0.1-80.7"/>
		<path d="M965.8,203.5c-0.1,28.3-0.2,56.7-0.3,85l40.1,0.5"/>
		<path d="M997,298.1l-0.5,82.8"/>
		<path d="M1012,305.3c8.6-1.3,17.3-1.2,25.9,0.3c9.3,1.7,12.4,4,13.6,5.1c6.5,5.6,7.3,14.1,7.5,17.1l0.6,53.4"/>
		<path d="M1035.7,312.5c1.9,0.3,3.7,1.1,5.3,2.1c5.2,3.5,6,9.5,6.1,10.7l0.5,54.2"/>
		<path d="M1098.2,310.1c1.5,0.8,2.9,1.9,4,3.2c2.6,3.1,4,6.9,4,11l1.6,55.9"/>
		<path d="M1053.9,303.4l44.1,0.5c3.9,0.3,7.7,1.7,10.9,4c7.9,5.8,8.7,15.1,8.8,16.6l1.1,55.3"/>
		<path d="M1074.4,277.6l0.4-75"/>
		<path d="M981.4,266.2l66.2-65.5"/>
		<rect x="878.2" y="559" width="454.7" height="238.7"/>
		<rect x="954.2" y="605" width="356.8" height="192.7"/>
		<path class="st18" d="M1098.9,605H954.2v109.7H1099L1098.9,605L1098.9,605z"/>
		<path d="M1288,797.7c12.8,0.1,23.2-10.2,23.2-23c0.1-12.8-10.2-23.2-23-23.2c-12.8-0.1-23.2,10.2-23.2,23v0.1
			C1265,787.4,1275.2,797.7,1288,797.7z"/>
		<rect x="878.2" y="559" width="454.7" height="214.5"/>
		<path class="st19" d="M878.7,766.7l-0.5-160c0.2-3.8,1.7-20.9,16-34.3c8.4-7.7,19.1-12.4,30.5-13.4l402.2,1.1"/>
		<path class="st19" d="M892.9,718.7v-97.1h9.3"/>
		<path class="st19" d="M1073.1,723.4l-97.8,0.5L974.9,620l141.8-0.9l1.4,67.5l38.1-67.1l1.4,141"/>
		<path class="st19" d="M1168.1,616.4l48.7,0.5l1.4,144.7"/>
		<path class="st19" d="M1231.5,617.3h38.6l1.4,147"/>
		<path d="M906.9,770.5l170.6,0.5L906.9,770.5z"/>
		<path d="M906.9,770.5l170.6,0.5"/>
		<path d="M1092.9,773.3h9.2"/>
		<path d="M1302.6,773.3l30.2,0.2L1302.6,773.3z"/>
		<path d="M1302.6,773.3l30.2,0.2"/>
		<path class="st20" d="M812.7,778v-20.5c0-27.5-7.5-35.5-31.5-35.5h-61c-51,0-65.5-10-65.5-50.5V239l158-92.5l51-30V-28"/>
		<circle cx="654.2" cy="240.5" r="7.5"/>
		<circle class="st21" cx="811.2" cy="148.5" r="13"/>
		<circle cx="759.2" cy="177.5" r="7.5"/>
		<circle cx="863.2" cy="46.5" r="7.5"/>
		<circle cx="704.2" cy="211.5" r="7.5"/>
		<circle cx="654.2" cy="372.5" r="7.5"/>
		<circle cx="654.2" cy="431.5" r="7.5"/>
		<circle class="st21" cx="654.2" cy="551.5" r="13"/>
		<path d="M1052.7,491c6.1-8-3-17.1-11-11C1035.6,488,1044.6,497.1,1052.7,491z"/>
		<circle cx="654.2" cy="671.5" r="7.5"/>
		<circle cx="747.2" cy="722.5" r="7.5"/>
		<circle cx="803.2" cy="728.5" r="7.5"/>
		<circle cx="813.2" cy="780.5" r="7.5"/>
		<path class="st22" d="M829.3,877.8c9,0.1,16.3-7.2,16.3-16.1c0.1-9-7.2-16.3-16.1-16.3c-9-0.1-16.3,7.2-16.3,16.1v0.1
			C813.1,870.5,820.4,877.7,829.3,877.8z"/>
		<circle class="st23" cx="813.7" cy="501.5" r="7.5"/>
		<path d="M1263.4,821.8c-0.1-4.2-3.6-7.5-7.8-7.4c-4.2,0.1-7.5,3.6-7.4,7.8c0.1,4.1,3.5,7.4,7.6,7.4
			C1260,829.5,1263.4,826,1263.4,821.8L1263.4,821.8z"/>
		<path d="M1319.4,821.8c-0.1-4.2-3.6-7.5-7.8-7.4c-4.2,0.1-7.5,3.6-7.4,7.8c0.1,4.1,3.5,7.4,7.6,7.4
			C1316,829.5,1319.4,826,1319.4,821.8L1319.4,821.8z"/>
		<path d="M1329.2,474c9.7,0.3,17.3,8.3,17,18s-8.3,17.3-18,17c-9.5-0.3-17-8-17-17.5C1311.3,481.7,1319.4,473.9,1329.2,474z"/>
		<polyline points="1005.2,70 1005.2,-239 2048.2,-239 2048.2,70 		"/>
	</g>
	<g class="st2">
		<circle cx="1249.9" cy="332.7" r="32.5"/>
		<path d="M1260.2,209.3h-38.1c-21.2,0.7-25.6,5.1-25.6,27.9V321c0,21.4,8.2,26.7,20.4,26.7c52.7,0.5,105.3-0.5,158,0"/>
		<circle class="st23" cx="1260.3" cy="210.3" r="7.5"/>
		<circle class="st23" cx="1195.9" cy="252.3" r="7.5"/>
		<circle class="st23" cx="1196.4" cy="308.7" r="7.5"/>
		<circle class="st23" cx="1312.9" cy="347.7" r="7.5"/>
		<circle class="st23" cx="1377.8" cy="347.7" r="7.5"/>
	</g>
</g>
<g id="Layer_3" class="st1">
	<circle class="st24" cx="924.4" cy="588.4" r="263.9"/>
</g>
<g class="st1">
	<rect x="639.8" y="580.7" class="st25" width="63.5" height="29.1"/>
	<path class="st26" d="M825.2,549.7H517.8V365c0-6.9,5.6-12.5,12.5-12.5h282.9c6.6,0,12,5.4,12,12L825.2,549.7L825.2,549.7z"/>
	<path class="st27" d="M811.3,580.7H531.7c-7.7,0-13.9-4-13.9-9v-12h307.4v12C825.2,576.7,819,580.7,811.3,580.7z"/>
	<circle class="st28" cx="671.5" cy="570.3" r="5.6"/>
	<rect x="601.6" y="605.1" class="st29" width="139.8" height="14.5"/>
	<polygon class="st25" points="741.4,605.1 601.6,605.1 612.4,599.8 730.6,599.8 	"/>
	<path class="st30" d="M561.8,385.6h172.1c6.6,0,11.9,5.3,11.9,11.9v107.3c0,6.6-5.3,11.9-11.9,11.9H561.8
		c-6.6,0-11.9-5.3-11.9-11.9V397.5C549.9,390.9,555.2,385.6,561.8,385.6z"/>
	<path class="st31" d="M804.4,410.8v-22.9c0-9.6-7.8-17.4-17.4-17.4h-24.3"/>
	<circle class="st32" cx="563.7" cy="397.6" r="4"/>
	<circle class="st33" cx="575.1" cy="397.6" r="4"/>
	<circle class="st34" cx="587.3" cy="397.6" r="4"/>
	<polyline class="st35" points="563.7,413.7 572.2,420.7 563.7,427.7 	"/>
	<line class="st36" x1="575.1" y1="427.7" x2="583.3" y2="427.7"/>
</g>
<g id="lightbulb">
	<g>
		<path class="st37" d="M673.5,157.9c0-28.3-23.5-51.1-52-50c-25.4,1-46.3,21.4-47.9,46.8c-1,16.8,6.2,31.9,18.1,41.7
			c8.9,7.4,14.3,18.1,14.3,29.7v0.7h35v-0.3c0-11.8,5.5-22.8,14.5-30.4C666.5,187.1,673.5,173.4,673.5,157.9z"/>
		<path class="st38" d="M608.6,254.9c-0.1,0.2-0.1,0.5-0.1,0.8c0,3.3,6.7,6,15,6s15-2.7,15-6c0-0.3-0.1-0.5-0.1-0.8H608.6z"/>
		<path class="st39" d="M636,254.9h-25c-2.8,0-5-2.2-5-5v-23h35v23C641,252.7,638.8,254.9,636,254.9z"/>
		<g>
			<path class="st37" d="M623.5,93.3L623.5,93.3c-1.7,0-3-1.3-3-3v-9c0-1.7,1.3-3,3-3l0,0c1.7,0,3,1.3,3,3v9
				C626.5,91.9,625.2,93.3,623.5,93.3z"/>
			<path class="st37" d="M583.5,106L583.5,106c-1.3,1-3.2,0.7-4.2-0.7L574,98c-1-1.3-0.7-3.2,0.7-4.2l0,0c1.3-1,3.2-0.7,4.2,0.7
				l5.3,7.3C585.1,103.2,584.8,105.1,583.5,106z"/>
			<path class="st37" d="M558.9,140L558.9,140c-0.5,1.6-2.2,2.4-3.8,1.9l-8.6-2.8c-1.6-0.5-2.4-2.2-1.9-3.8l0,0
				c0.5-1.6,2.2-2.4,3.8-1.9l8.6,2.8C558.6,136.8,559.4,138.5,558.9,140z"/>
			<path class="st37" d="M558.5,181.9L558.5,181.9c0.5,1.6-0.4,3.3-1.9,3.8l-8.6,2.8c-1.6,0.5-3.3-0.4-3.8-1.9l0,0
				c-0.5-1.6,0.4-3.3,1.9-3.8l8.6-2.8C556.3,179.5,558,180.3,558.5,181.9z"/>
			<path class="st37" d="M684.9,180.5L684.9,180.5c0.5-1.6,2.2-2.4,3.8-1.9l8.6,2.8c1.6,0.5,2.4,2.2,1.9,3.8l0,0
				c-0.5,1.6-2.2,2.4-3.8,1.9l-8.6-2.8C685.3,183.8,684.4,182.1,684.9,180.5z"/>
			<path class="st37" d="M684.5,138.3L684.5,138.3c-0.5-1.6,0.4-3.3,1.9-3.8l8.6-2.8c1.6-0.5,3.3,0.4,3.8,1.9l0,0
				c0.5,1.6-0.4,3.3-1.9,3.8l-8.6,2.8C686.7,140.8,685,139.9,684.5,138.3z"/>
			<path class="st37" d="M659.6,104.4L659.6,104.4c-1.3-1-1.6-2.8-0.7-4.2l5.3-7.3c1-1.3,2.8-1.6,4.2-0.7l0,0c1.3,1,1.6,2.8,0.7,4.2
				l-5.3,7.3C662.8,105,660.9,105.3,659.6,104.4z"/>
		</g>
	</g>
	<path class="st40" d="M678.5,152.9c0-28.3-23.5-51.1-52-50c-25.4,1-46.3,21.4-47.9,46.8c-1,16.8,6.2,31.9,18.1,41.7
		c8.9,7.4,14.3,18.1,14.3,29.7v0.7h35v-0.3c0-11.8,5.5-22.8,14.5-30.4C671.5,182.1,678.5,168.4,678.5,152.9z"/>
	<path class="st40" d="M613.6,249.9c-0.1,0.2-0.1,0.5-0.1,0.8c0,3.3,6.7,6,15,6s15-2.7,15-6c0-0.3-0.1-0.5-0.1-0.8H613.6z"/>
	<path class="st40" d="M641,249.9h-25c-2.8,0-5-2.2-5-5v-23h35v23C646,247.7,643.8,249.9,641,249.9z"/>
	<path class="st41" d="M623,178.9h-6c-3.3,0-6-2.7-6-6l0,0c0-3.3,2.7-6,6-6l0,0c3.3,0,6,2.7,6,6V178.9z"/>
	<path class="st41" d="M640,178.9h-6v-6c0-3.3,2.7-6,6-6l0,0c3.3,0,6,2.7,6,6l0,0C646,176.2,643.3,178.9,640,178.9z"/>
	<line class="st41" x1="623" y1="178.9" x2="634" y2="178.9"/>
	<line class="st41" x1="623" y1="178.9" x2="623" y2="221.9"/>
	<line class="st41" x1="634" y1="178.9" x2="634" y2="221.9"/>
	<line class="st42" x1="617" y1="228.9" x2="640" y2="228.9"/>
	<line class="st42" x1="617" y1="234.9" x2="640" y2="234.9"/>
	<line class="st42" x1="617" y1="240.9" x2="640" y2="240.9"/>
	<path class="st43" d="M596,148.9c0-17.9,14.6-32.5,32.5-32.5"/>
	<g>
		<path class="st41" d="M628.5,88.3L628.5,88.3c-1.7,0-3-1.3-3-3v-9c0-1.7,1.3-3,3-3l0,0c1.7,0,3,1.3,3,3v9
			C631.5,86.9,630.2,88.3,628.5,88.3z"/>
		<path class="st41" d="M588.5,101L588.5,101c-1.3,1-3.2,0.7-4.2-0.7L579,93c-1-1.3-0.7-3.2,0.7-4.2l0,0c1.3-1,3.2-0.7,4.2,0.7
			l5.3,7.3C590.1,98.2,589.8,100.1,588.5,101z"/>
		<path class="st41" d="M563.9,135L563.9,135c-0.5,1.6-2.2,2.4-3.8,1.9l-8.6-2.8c-1.6-0.5-2.4-2.2-1.9-3.8l0,0
			c0.5-1.6,2.2-2.4,3.8-1.9l8.6,2.8C563.6,131.8,564.4,133.5,563.9,135z"/>
		<path class="st41" d="M563.5,176.9L563.5,176.9c0.5,1.6-0.4,3.3-1.9,3.8l-8.6,2.8c-1.6,0.5-3.3-0.4-3.8-1.9l0,0
			c-0.5-1.6,0.4-3.3,1.9-3.8l8.6-2.8C561.3,174.5,563,175.3,563.5,176.9z"/>
		<path class="st41" d="M689.9,175.5L689.9,175.5c0.5-1.6,2.2-2.4,3.8-1.9l8.6,2.8c1.6,0.5,2.4,2.2,1.9,3.8l0,0
			c-0.5,1.6-2.2,2.4-3.8,1.9l-8.6-2.8C690.3,178.8,689.4,177.1,689.9,175.5z"/>
		<path class="st41" d="M689.5,133.3L689.5,133.3c-0.5-1.6,0.4-3.3,1.9-3.8l8.6-2.8c1.6-0.5,3.3,0.4,3.8,1.9l0,0
			c0.5,1.6-0.4,3.3-1.9,3.8l-8.6,2.8C691.7,135.8,690,134.9,689.5,133.3z"/>
		<path class="st41" d="M664.6,99.4L664.6,99.4c-1.3-1-1.6-2.8-0.7-4.2l5.3-7.3c1-1.3,2.8-1.6,4.2-0.7l0,0c1.3,1,1.6,2.8,0.7,4.2
			l-5.3,7.3C667.8,100,665.9,100.3,664.6,99.4z"/>
	</g>
</g>
<g id="Layer_7" class="st1">
	<path class="st44" d="M564.1,588.2l-0.4,177.2c0,7.7-6.3,14-14,14l-432,0.6c-8.3,0-15,6.7-15,15l0.2,106"/>
</g>
<g id="Layer_5" class="st1">
</g>
<g>
	<path class="st45" d="M646.6,852.4h-163c-1.1,0-2-0.9-2-2c0,0-0.2-50.4,1.7-67.8c2.6-24.1,12.1-70.1,12.1-70.1
		c0.2-1.1,0.2-1.1-0.1,0l-15.4,58.1c-0.3,1.1-0.8,2.8-1.1,3.8l-24.1,76.1c-0.3,1-1.5,1.9-2.6,1.9h-42.7c-1.1,0-1.7-0.8-1.3-1.9
		c0,0,66.1-184.3,104.1-200.8c17.8-7.7,54.6-2.8,67-38.9c4.6-13.4-7.3-20.4-7.3-20.4c-0.9-0.6-2.6-1.2-3.7-1.4
		c0,0-30.6-6.4-39.2-6.4c-16.9,0-9.4-39.1-9.4-39.1c0.2-1.1-0.3-2.5-1.2-3.2l-5.2-3.9c-0.9-0.7-1.5-2.1-1.5-3.2
		c0,0,1.5-22.2,4.4-28.4c1.3-2.9,3.4-5.8,3.2-8.8c-1.1-12.4-5.3-11.2-38.2-31.8c-1.7-1-1.8-3.4-0.4-4.8c10.6-10.3,37.4-32.3,45-46.7
		c7.2-13.5,9.9-45.2,16.9-58.9c0,0,22.7-73.7,128-41.6c11,3.3,62.3,30.4,67.9,68.1s-12.8,150.3-37.7,192.6
		c-9.3,15.8-26.6,17.1-46.9,25s-1.5,72.8-1.5,72.8c0.3,1.1,0.9,2.7,1.4,3.7c0,0,72.4,156.3,64.5,177.8h-54.9c-1.1,0-2.3-0.9-2.7-1.9
		c0,0-17.7-51.2-23-64.5l-20.1-64.2c-0.3-1-0.5-1-0.4,0.1l1.2,10.3c0.1,1.1,0.4,2.9,0.5,4C618.7,736.2,635.5,839.1,646.6,852.4z"/>
</g>
<g>
	<polyline class="st46" points="592.8,390.8 680.4,373.7 674,406.5 626.2,431.3 632.6,398.5 638.9,365.6 592.8,390.8 599.2,357.9 
		632.6,398.5 	"/>
	<path class="st46" d="M626.2,431.3l-33.4-40.6L626.2,431.3z"/>
	<polyline class="st46" points="632.6,398.5 680.4,373.7 645.3,332.8 638.9,365.6 674,406.5 599.2,357.9 645.3,332.8 	"/>
</g>
<g>
	<path class="st47" d="M651.6,847.4h-163c-1.1,0-2-0.9-2-2c0,0-0.2-50.4,1.7-67.8c2.6-24.1,12.1-70.1,12.1-70.1
		c0.2-1.1,0.2-1.1-0.1,0l-15.4,58.1c-0.3,1.1-0.8,2.8-1.1,3.8l-24.1,76.1c-0.3,1-1.5,1.9-2.6,1.9h-42.7c-1.1,0-1.7-0.8-1.3-1.9
		c0,0,66.1-184.3,104.1-200.8c17.8-7.7,54.6-2.8,67-38.9c4.6-13.4-7.3-20.4-7.3-20.4c-0.9-0.6-2.6-1.2-3.7-1.4
		c0,0-30.6-6.4-39.2-6.4c-16.9,0-9.4-39.1-9.4-39.1c0.2-1.1-0.3-2.5-1.2-3.2l-5.2-3.9c-0.9-0.7-1.5-2.1-1.5-3.2
		c0,0,1.5-22.2,4.4-28.4c1.3-2.9,3.4-5.8,3.2-8.8c-1.1-12.4-5.3-11.2-38.2-31.8c-1.7-1-1.8-3.4-0.4-4.8c10.6-10.3,37.4-32.3,45-46.7
		c7.2-13.5,9.9-45.2,16.9-58.9c0,0,22.7-73.7,128-41.6c11,3.3,62.3,30.4,67.9,68.1s-12.8,150.3-37.7,192.6
		c-9.3,15.8-26.6,17.1-46.9,25s-1.5,72.8-1.5,72.8c0.3,1.1,0.9,2.7,1.4,3.7c0,0,72.4,156.3,64.5,177.8h-54.9c-1.1,0-2.3-0.9-2.7-1.9
		c0,0-17.7-51.2-23-64.5l-20.1-64.2c-0.3-1-0.5-1-0.4,0.1l1.2,10.3c0.1,1.1,0.4,2.9,0.5,4C623.7,731.2,640.5,834.1,651.6,847.4z"/>
</g>
<g>
	<path class="st47" d="M690,469.3c4.1-11.8,9.2-19.3,13.3-18.6c6.3,1.1,8,21,3.9,44.4c-4.1,23.4-12.6,41.5-18.9,40.4
		c-2.7-0.5-4.5-4.3-5.4-10.4"/>
</g>
<ellipse transform="matrix(0.1736 -0.9848 0.9848 0.1736 40.7532 934.6939)" class="st48" cx="577.3" cy="443.1" rx="20.3" ry="3.7"/>
<path class="st49" d="M532.1,536.8c0,0,8.8,10.4,26.8,4.4"/>
<g>
	<circle class="st50" cx="643.3" cy="334.8" r="10"/>
	<circle class="st50" cx="624.2" cy="433.3" r="10"/>
	<circle class="st50" cx="597.2" cy="359.9" r="10"/>
	<circle class="st50" cx="636.9" cy="367.6" r="10"/>
	<circle class="st50" cx="678.4" cy="375.7" r="10"/>
	<circle class="st50" cx="590.8" cy="392.8" r="10"/>
	<circle class="st50" cx="630.6" cy="400.5" r="10"/>
	<circle class="st50" cx="672" cy="408.5" r="10"/>
</g>
<g>
	<circle class="st42" cx="645.3" cy="332.8" r="10"/>
	<circle class="st42" cx="626.2" cy="431.3" r="10"/>
	<circle class="st42" cx="599.2" cy="357.9" r="10"/>
	<circle class="st42" cx="638.9" cy="365.6" r="10"/>
	<circle class="st42" cx="680.4" cy="373.7" r="10"/>
	<circle class="st42" cx="592.8" cy="390.8" r="10"/>
	<circle class="st42" cx="632.6" cy="398.5" r="10"/>
	<circle class="st42" cx="674" cy="406.5" r="10"/>
</g>
<path class="st51" d="M599.2,352.9c-2.8,0-5,2.2-5,5"/>
<path class="st51" d="M633.9,365.6c0-2.8,2.2-5,5-5"/>
<path class="st51" d="M674.3,374.5c0-2.8,2.2-5,5-5"/>
<path class="st51" d="M640.3,332.8c0-2.8,2.2-5,5-5"/>
<path class="st51" d="M587.8,390.8c0-2.8,2.2-5,5-5"/>
<path class="st51" d="M627.6,398.5c0-2.8,2.2-5,5-5"/>
<path class="st51" d="M667.9,407.4c0-2.8,2.2-5,5-5"/>
<path class="st51" d="M620.1,431.1c0-2.8,2.2-5,5-5"/>
<g>
	<g>
		<circle class="st50" cx="242.1" cy="717.4" r="55"/>
		<circle class="st52" cx="242.1" cy="717.4" r="39.7"/>
		<circle class="st53" cx="242.1" cy="717.4" r="8.7"/>
	</g>
	<circle class="st54" cx="242.1" cy="717.4" r="70"/>
</g>
<g>
	<g>
		<circle class="st50" cx="929.2" cy="538.4" r="55"/>
		<circle class="st52" cx="929.2" cy="538.4" r="39.7"/>
		<circle class="st53" cx="929.2" cy="538.4" r="8.7"/>
	</g>
	<circle class="st54" cx="929.2" cy="538.4" r="70"/>
</g>
<g>
	<g>
		<path class="st52" d="M927.4,535.7c-13.9-3.9-8.5-23.2-22.5-27.1c-13.9-3.9-19.4,15.3-33.3,11.4s-8.5-23.2-22.5-27.1
			c-13.9-3.9-19.4,15.3-33.3,11.4s-8.5-23.2-22.5-27.1c-13.9-3.9-19.4,15.3-33.3,11.4s-8.5-23.2-22.5-27.1
			c-13.9-3.9-19.4,15.3-33.3,11.4c-14-3.9-8.5-23.2-22.5-27.1s-19.4,15.3-33.3,11.4c-14-3.9-8.5-23.2-22.5-27.1"/>
	</g>
	<circle class="st53" cx="626.2" cy="431.3" r="2.8"/>
</g>
<path class="st52" d="M138.4,938.7"/>
<g>
	<path class="st52" d="M99.5,902.7c0,0,0-7.3,0-16.1s1.4-16.1,3-16.1h136.5c1.7,0,3-11.2,3-25V708.7"/>
</g>
<line class="st52" x1="99.5" y1="897.7" x2="99.5" y2="917.1"/>
</svg>
